Coordinates
version=1
nRows=53
nColumns=11
inDegrees=no

Units are S.I. units (second, meters, Newtons, ...)
If the header above contains a line with 'inDegrees', this indicates whether rotational values are in degrees (yes) or radians (no).

endheader
time	pelvis_tilt	pelvis_tx	pelvis_ty	hip_flexion_r	knee_angle_r	ankle_angle_r	hip_flexion_l	knee_angle_l	ankle_angle_l	lumbar_extension
105.5	0.0535306	0.185757	1.01305	0.265759	-1.02409	0.0982392	-0.0263039	-0.186459	0.183753	0
105.51	0.0515933	0.184226	1.01359	0.282926	-0.98945	0.102309	-0.0444487	-0.172383	0.194367	0
105.52	0.0529039	0.184121	1.01449	0.291248	-0.94582	0.109697	-0.0655579	-0.161785	0.198857	0
105.53	0.0535877	0.183506	1.01547	0.29846	-0.896811	0.112241	-0.0858934	-0.150517	0.200416	0
105.54	0.0816239	0.187099	1.01766	0.270028	-0.850865	0.112419	-0.136149	-0.152726	0.208235	0
105.55	0.0513126	0.181211	1.01574	0.312858	-0.789655	0.117623	-0.117079	-0.136566	0.213563	0
105.56	0.051997	0.180498	1.01547	0.311938	-0.726726	0.121027	-0.13621	-0.128427	0.219356	0
105.57	0.0531214	0.180244	1.01506	0.307918	-0.658842	0.124963	-0.158684	-0.115375	0.222583	0
105.58	0.0539607	0.180189	1.01431	0.303049	-0.588927	0.13049	-0.18033	-0.103561	0.230193	0
105.59	0.0540096	0.180116	1.01318	0.299888	-0.520671	0.130784	-0.199383	-0.0954781	0.238581	0
105.6	0.0542144	0.180035	1.01173	0.295747	-0.451382	0.128398	-0.220338	-0.084829	0.245638	0
105.61	0.0548189	0.180058	1.00988	0.288498	-0.378751	0.126464	-0.243192	-0.0715254	0.251891	0
105.62	0.0558957	0.180432	1.00784	0.279067	-0.306365	0.131295	-0.264811	-0.06142	0.25995	0
105.63	0.056521	0.180853	1.00553	0.272515	-0.241765	0.136988	-0.285759	-0.0517034	0.268738	0
105.64	0.0553913	0.180693	1.00283	0.271155	-0.186511	0.145053	-0.299392	-0.0513493	0.281594	0
105.65	0.0526882	0.1805	0.999917	0.271918	-0.135614	0.154288	-0.306834	-0.0580627	0.299351	0
105.66	0.0533411	0.181185	0.997308	0.267239	-0.0888755	0.163166	-0.319057	-0.0645697	0.313246	0
105.67	0.0541637	0.181439	0.994749	0.263292	-0.0511504	0.168026	-0.332152	-0.0705897	0.325234	0
105.68	0.0551046	0.181892	0.99211	0.260835	-0.0248709	0.171683	-0.343488	-0.0812184	0.337498	0
105.69	0.0539469	0.181991	0.989282	0.261016	-0.00741902	0.173905	-0.351114	-0.0949676	0.34926	0
105.7	0.0780036	0.186145	0.988511	0.234959	-0.0110057	0.180979	-0.386548	-0.116651	0.363921	0
105.71	0.0816672	0.187732	0.986084	0.231405	-0.0174623	0.187464	-0.399315	-0.131199	0.375676	0
105.72	0.0876568	0.189796	0.984026	0.230801	-0.0415906	0.185252	-0.408322	-0.156451	0.386645	0
105.73	0.0831903	0.1897	0.981639	0.238085	-0.0638674	0.173495	-0.409894	-0.172279	0.389726	0
105.74	0.0628084	0.188179	0.978217	0.264959	-0.0854607	0.15782	-0.391701	-0.185898	0.387725	0
105.75	0.0861812	0.192549	0.978074	0.245393	-0.122974	0.142403	-0.416667	-0.224699	0.391032	0
105.76	0.0867172	0.193616	0.976382	0.250308	-0.148481	0.115439	-0.411921	-0.263975	0.392914	0
105.77	0.0874438	0.194716	0.97508	0.253185	-0.170267	0.0727968	-0.405703	-0.305228	0.392026	0
105.78	0.0887191	0.19588	0.973892	0.255375	-0.192675	0.0298319	-0.397815	-0.350162	0.382697	0
105.79	0.0907566	0.197488	0.973208	0.256903	-0.217606	0.00565678	-0.388777	-0.397886	0.365072	0
105.8	0.0933548	0.199177	0.972972	0.259706	-0.249379	0.00935335	-0.377272	-0.449152	0.335515	0
105.81	0.0961705	0.200847	0.972893	0.26157	-0.282288	0.0294041	-0.36071	-0.507688	0.29827	0
105.82	0.0983731	0.20217	0.973207	0.262701	-0.313931	0.0511721	-0.338644	-0.570521	0.254138	0
105.83	0.0977011	0.202295	0.973509	0.265636	-0.342472	0.067785	-0.304726	-0.641802	0.204926	0
105.84	0.0958814	0.201902	0.973813	0.266107	-0.364245	0.0828845	-0.26373	-0.718142	0.147462	0
105.85	0.0933663	0.202013	0.974212	0.26303	-0.379844	0.101427	-0.220293	-0.793758	0.0857662	0
105.86	0.0721397	0.199218	0.974053	0.280672	-0.387162	0.118509	-0.154014	-0.861349	0.0292562	0
105.87	0.0838221	0.200303	0.975728	0.262101	-0.406253	0.131486	-0.128984	-0.929266	-0.00506875	0
105.88	0.0633006	0.196286	0.976367	0.276435	-0.411266	0.145913	-0.0697971	-0.983186	-0.00442626	0
105.89	0.0768526	0.198011	0.978728	0.254293	-0.428609	0.157417	-0.0519712	-1.03725	0.0189751	0
105.9	0.0580327	0.194399	0.979721	0.265743	-0.429276	0.164468	0.00834179	-1.08532	0.0399457	0
105.91	0.0557444	0.193417	0.981857	0.255526	-0.429956	0.172609	0.0460057	-1.12481	0.05026	0
105.92	0.0542409	0.192048	0.984539	0.239613	-0.424518	0.183336	0.0801529	-1.15575	0.053775	0
105.93	0.0545876	0.192041	0.987001	0.222123	-0.417121	0.194051	0.112308	-1.18037	0.0572635	0
105.94	0.0514316	0.190093	0.989705	0.207858	-0.409243	0.19892	0.146909	-1.19826	0.062195	0
105.95	0.0494884	0.188515	0.992462	0.191577	-0.399444	0.201819	0.177015	-1.20581	0.0696813	0
105.96	0.0489898	0.187848	0.995672	0.170072	-0.385091	0.205622	0.200683	-1.20342	0.0750936	0
105.97	0.0666782	0.190096	0.999815	0.127243	-0.376889	0.208517	0.19886	-1.19513	0.0752896	0
105.98	0.0670283	0.189419	1.00279	0.102868	-0.359687	0.206448	0.219063	-1.18092	0.0758935	0
105.99	0.0675186	0.188865	1.00556	0.0800058	-0.343508	0.204932	0.236142	-1.15899	0.0803661	0
106	0.0750206	0.188606	1.00863	0.0486975	-0.329785	0.206089	0.24341	-1.13567	0.083493	0
106.01	0.0433363	0.182076	1.00922	0.0640096	-0.302267	0.206064	0.30123	-1.10276	0.0918485	0
106.02	0.0649336	0.184515	1.01261	0.0163829	-0.292882	0.207675	0.285125	-1.06824	0.0919287	0
